<svg width="138" height="138" viewBox="0 0 138 138" fill="none" xmlns="http://www.w3.org/2000/svg">
<path d="M75.25 118.255C78.6248 120.377 81.9997 123.265 82 126.333C82 132.469 76.5771 137 68.5 137C60.423 137 55 132.469 55 126.333C55.0003 123.265 58.3753 120.377 61.75 118.255V113H25V76.25H19.7451C17.6234 79.6248 14.735 82.9997 11.667 83C5.53058 83 1 77.5771 1 69.5C1.0001 61.423 5.53065 56 11.667 56C14.7349 56.0003 17.6234 59.3753 19.7451 62.75H25V25H61.75V19.7451C58.3752 17.6234 55.0003 14.735 55 11.667C55 5.53058 60.4229 1 68.5 1C76.577 1.0001 82 5.53065 82 11.667C81.9997 14.7349 78.6247 17.6234 75.25 19.7451V25H113V62.75H118.255C120.377 59.3752 123.265 56.0003 126.333 56C132.469 56 137 61.4229 137 69.5C137 77.577 132.469 83 126.333 83C123.265 82.9997 120.377 79.6247 118.255 76.25H113V113H75.25V118.255Z" fill="#00FF44"/>
<path d="M75.25 118.255H74.75V118.531L74.9839 118.678L75.25 118.255ZM82 126.333L82.5 126.333L82.5 126.333L82 126.333ZM68.5 137L68.5 137.5H68.5V137ZM55 126.333L54.5 126.333V126.333H55ZM61.75 118.255L62.0161 118.678L62.25 118.531V118.255H61.75ZM61.75 113H62.25V112.5H61.75V113ZM25 113H24.5V113.5H25V113ZM25 76.25H25.5V75.75H25V76.25ZM19.7451 76.25V75.75H19.4689L19.3218 75.9839L19.7451 76.25ZM11.667 83L11.667 83.5L11.667 83.5L11.667 83ZM1 69.5L0.5 69.5V69.5H1ZM11.667 56L11.667 55.5H11.667V56ZM19.7451 62.75L19.3218 63.0161L19.4689 63.25H19.7451V62.75ZM25 62.75V63.25H25.5V62.75H25ZM25 25V24.5H24.5V25H25ZM61.75 25V25.5H62.25V25H61.75ZM61.75 19.7451H62.25V19.4689L62.0161 19.3218L61.75 19.7451ZM55 11.667L54.5 11.667L54.5 11.667L55 11.667ZM68.5 1L68.5 0.5H68.5V1ZM82 11.667L82.5 11.667V11.667H82ZM75.25 19.7451L74.9839 19.3218L74.75 19.4689V19.7451H75.25ZM75.25 25H74.75V25.5H75.25V25ZM113 25H113.5V24.5H113V25ZM113 62.75H112.5V63.25H113V62.75ZM118.255 62.75V63.25H118.531L118.678 63.0161L118.255 62.75ZM126.333 56L126.333 55.5L126.333 55.5L126.333 56ZM137 69.5L137.5 69.5V69.5H137ZM126.333 83L126.333 83.5H126.333V83ZM118.255 76.25L118.678 75.9839L118.531 75.75H118.255V76.25ZM113 76.25V75.75H112.5V76.25H113ZM113 113V113.5H113.5V113H113ZM75.25 113V112.5H74.75V113H75.25ZM75.25 118.255L74.9839 118.678C76.6535 119.728 78.2998 120.953 79.5231 122.278C80.7535 123.611 81.4998 124.983 81.5 126.333L82 126.333L82.5 126.333C82.4998 124.615 81.5585 123.009 80.2578 121.6C78.9499 120.183 77.2213 118.904 75.5161 117.832L75.25 118.255ZM82 126.333H81.5C81.5 132.097 76.4089 136.5 68.5 136.5V137V137.5C76.7454 137.5 82.5 132.842 82.5 126.333H82ZM68.5 137L68.5 136.5C60.5913 136.5 55.5 132.096 55.5 126.333H55H54.5C54.5 132.842 60.2548 137.5 68.5 137.5L68.5 137ZM55 126.333L55.5 126.333C55.5002 124.983 56.2465 123.611 57.477 122.278C58.7003 120.953 60.3466 119.728 62.0161 118.678L61.75 118.255L61.4839 117.832C59.7787 118.904 58.0502 120.183 56.7422 121.6C55.4415 123.009 54.5002 124.615 54.5 126.333L55 126.333ZM61.75 118.255H62.25V113H61.75H61.25V118.255H61.75ZM61.75 113V112.5H25V113V113.5H61.75V113ZM25 113H25.5V76.25H25H24.5V113H25ZM25 76.25V75.75H19.7451V76.25V76.75H25V76.25ZM19.7451 76.25L19.3218 75.9839C18.2722 77.6535 17.0468 79.2998 15.7218 80.5231C14.389 81.7535 13.017 82.4998 11.6669 82.5L11.667 83L11.667 83.5C13.385 83.4998 14.9912 82.5585 16.4001 81.2578C17.8167 79.9499 19.0964 78.2213 20.1684 76.5161L19.7451 76.25ZM11.667 83V82.5C5.90348 82.5 1.5 77.4089 1.5 69.5H1H0.5C0.5 77.7454 5.15768 83.5 11.667 83.5V83ZM1 69.5L1.5 69.5C1.5001 61.5913 5.90355 56.5 11.667 56.5V56V55.5C5.15774 55.5 0.500104 61.2548 0.5 69.5L1 69.5ZM11.667 56L11.6669 56.5C13.0169 56.5002 14.3889 57.2465 15.7217 58.477C17.0468 59.7003 18.2722 61.3466 19.3218 63.0161L19.7451 62.75L20.1684 62.4839C19.0964 60.7787 17.8167 59.0502 16.4001 57.7422C14.9912 56.4415 13.385 55.5002 11.667 55.5L11.667 56ZM19.7451 62.75V63.25H25V62.75V62.25H19.7451V62.75ZM25 62.75H25.5V25H25H24.5V62.75H25ZM25 25V25.5H61.75V25V24.5H25V25ZM61.75 25H62.25V19.7451H61.75H61.25V25H61.75ZM61.75 19.7451L62.0161 19.3218C60.3465 18.2722 58.7002 17.0468 57.4769 15.7218C56.2465 14.389 55.5002 13.017 55.5 11.6669L55 11.667L54.5 11.667C54.5002 13.385 55.4415 14.9912 56.7422 16.4001C58.0501 17.8167 59.7787 19.0964 61.4839 20.1684L61.75 19.7451ZM55 11.667H55.5C55.5 5.90348 60.5911 1.5 68.5 1.5V1V0.5C60.2546 0.5 54.5 5.15768 54.5 11.667H55ZM68.5 1L68.5 1.5C76.4087 1.5001 81.5 5.90355 81.5 11.667H82H82.5C82.5 5.15774 76.7452 0.500104 68.5 0.5L68.5 1ZM82 11.667L81.5 11.6669C81.4998 13.0169 80.7535 14.3889 79.523 15.7217C78.2997 17.0468 76.6534 18.2722 74.9839 19.3218L75.25 19.7451L75.5161 20.1684C77.2213 19.0964 78.9498 17.8167 80.2578 16.4001C81.5585 14.9912 82.4998 13.385 82.5 11.667L82 11.667ZM75.25 19.7451H74.75V25H75.25H75.75V19.7451H75.25ZM75.25 25V25.5H113V25V24.5H75.25V25ZM113 25H112.5V62.75H113H113.5V25H113ZM113 62.75V63.25H118.255V62.75V62.25H113V62.75ZM118.255 62.75L118.678 63.0161C119.728 61.3465 120.953 59.7002 122.278 58.4769C123.611 57.2465 124.983 56.5002 126.333 56.5L126.333 56L126.333 55.5C124.615 55.5002 123.009 56.4415 121.6 57.7422C120.183 59.0501 118.904 60.7787 117.832 62.4839L118.255 62.75ZM126.333 56V56.5C132.097 56.5 136.5 61.5911 136.5 69.5H137H137.5C137.5 61.2546 132.842 55.5 126.333 55.5V56ZM137 69.5L136.5 69.5C136.5 77.4087 132.096 82.5 126.333 82.5V83V83.5C132.842 83.5 137.5 77.7452 137.5 69.5L137 69.5ZM126.333 83L126.333 82.5C124.983 82.4998 123.611 81.7535 122.278 80.523C120.953 79.2997 119.728 77.6534 118.678 75.9839L118.255 76.25L117.832 76.5161C118.904 78.2213 120.183 79.9498 121.6 81.2578C123.009 82.5585 124.615 83.4998 126.333 83.5L126.333 83ZM118.255 76.25V75.75H113V76.25V76.75H118.255V76.25ZM113 76.25H112.5V113H113H113.5V76.25H113ZM113 113V112.5H75.25V113V113.5H113V113ZM75.25 113H74.75V118.255H75.25H75.75V113H75.25Z" fill="black"/>
</svg>
