<svg width="114" height="90" viewBox="0 0 114 90" fill="none" xmlns="http://www.w3.org/2000/svg">
<path d="M61.75 6.25488C58.3753 8.37655 55.0003 11.2651 55 14.333C55 20.4694 60.423 24.9999 68.5 25C76.5771 25 82 20.4694 82 14.333C81.9997 11.265 78.6248 8.37658 75.25 6.25488V1H113V89H25V52.25H19.7451C17.6234 55.6248 14.735 58.9997 11.667 59C5.53058 59 1 53.5771 1 45.5C1.0001 37.423 5.53065 32 11.667 32C14.7349 32.0003 17.6234 35.3753 19.7451 38.75H25V1H61.75V6.25488Z" fill="#00FF44"/>
<path d="M61.75 6.25488L62.0161 6.67818L62.25 6.53114V6.25488H61.75ZM55 14.333L54.5 14.333V14.333H55ZM68.5 25L68.5 25.5H68.5V25ZM82 14.333L82.5 14.333L82.5 14.333L82 14.333ZM75.25 6.25488H74.75V6.53114L74.9839 6.67818L75.25 6.25488ZM75.25 1V0.5H74.75V1H75.25ZM113 1H113.5V0.5H113V1ZM113 89V89.5H113.5V89H113ZM25 89H24.5V89.5H25V89ZM25 52.25H25.5V51.75H25V52.25ZM19.7451 52.25V51.75H19.4689L19.3218 51.9839L19.7451 52.25ZM11.667 59L11.667 59.5L11.667 59.5L11.667 59ZM1 45.5L0.5 45.5V45.5H1ZM11.667 32L11.667 31.5H11.667V32ZM19.7451 38.75L19.3218 39.0161L19.4689 39.25H19.7451V38.75ZM25 38.75V39.25H25.5V38.75H25ZM25 1V0.5H24.5V1H25ZM61.75 1H62.25V0.5H61.75V1ZM61.75 6.25488L61.4839 5.83159C59.7787 6.90361 58.0502 8.18329 56.7422 9.59992C55.4415 11.0088 54.5002 12.615 54.5 14.333L55 14.333L55.5 14.3331C55.5002 12.9831 56.2465 11.6111 57.477 10.2783C58.7003 8.95325 60.3466 7.72783 62.0161 6.67818L61.75 6.25488ZM55 14.333H54.5C54.5 20.8423 60.2548 25.4999 68.5 25.5L68.5 25L68.5 24.5C60.5913 24.4999 55.5 20.0964 55.5 14.333H55ZM68.5 25V25.5C76.7454 25.5 82.5 20.8423 82.5 14.333H82H81.5C81.5 20.0965 76.4089 24.5 68.5 24.5V25ZM82 14.333L82.5 14.333C82.4998 12.615 81.5585 11.0088 80.2578 9.59989C78.9499 8.18326 77.2213 6.90361 75.5161 5.83159L75.25 6.25488L74.9839 6.67818C76.6535 7.72785 78.2998 8.95323 79.5231 10.2782C80.7535 11.611 81.4998 12.983 81.5 14.3331L82 14.333ZM75.25 6.25488H75.75V1H75.25H74.75V6.25488H75.25ZM75.25 1V1.5H113V1V0.5H75.25V1ZM113 1H112.5V89H113H113.5V1H113ZM113 89V88.5H25V89V89.5H113V89ZM25 89H25.5V52.25H25H24.5V89H25ZM25 52.25V51.75H19.7451V52.25V52.75H25V52.25ZM19.7451 52.25L19.3218 51.9839C18.2722 53.6535 17.0468 55.2998 15.7218 56.5231C14.389 57.7535 13.017 58.4998 11.6669 58.5L11.667 59L11.667 59.5C13.385 59.4998 14.9912 58.5585 16.4001 57.2578C17.8167 55.9499 19.0964 54.2213 20.1684 52.5161L19.7451 52.25ZM11.667 59V58.5C5.90348 58.5 1.5 53.4089 1.5 45.5H1H0.5C0.5 53.7454 5.15768 59.5 11.667 59.5V59ZM1 45.5L1.5 45.5C1.5001 37.5913 5.90355 32.5 11.667 32.5V32V31.5C5.15774 31.5 0.500104 37.2548 0.5 45.5L1 45.5ZM11.667 32L11.6669 32.5C13.0169 32.5002 14.3889 33.2465 15.7217 34.477C17.0468 35.7003 18.2722 37.3466 19.3218 39.0161L19.7451 38.75L20.1684 38.4839C19.0964 36.7787 17.8167 35.0502 16.4001 33.7422C14.9912 32.4415 13.385 31.5002 11.667 31.5L11.667 32ZM19.7451 38.75V39.25H25V38.75V38.25H19.7451V38.75ZM25 38.75H25.5V1H25H24.5V38.75H25ZM25 1V1.5H61.75V1V0.5H25V1ZM61.75 1H61.25V6.25488H61.75H62.25V1H61.75Z" fill="black"/>
</svg>
