<svg width="90" height="114" viewBox="0 0 90 114" fill="none" xmlns="http://www.w3.org/2000/svg">
<path d="M51.25 94.2549C54.6248 96.3766 57.9997 99.265 58 102.333C58 108.469 52.5771 113 44.5 113C36.423 113 31 108.469 31 102.333C31.0003 99.2651 34.3753 96.3766 37.75 94.2549V89H1V52.25H6.25488C8.37655 55.6247 11.2651 58.9997 14.333 59C20.4694 59 24.9999 53.577 25 45.5C25 37.4229 20.4694 32 14.333 32C11.265 32.0003 8.37658 35.3752 6.25488 38.75H1V1H89V38.75H83.7451C81.6234 35.3753 78.7349 32.0003 75.667 32C69.5306 32 65.0001 37.423 65 45.5C65 53.5771 69.5306 59 75.667 59C78.735 58.9997 81.6234 55.6248 83.7451 52.25H89V89H51.25V94.2549Z" fill="#00FF44"/>
<path d="M51.25 94.2549H50.75V94.5311L50.9839 94.6782L51.25 94.2549ZM58 102.333L58.5 102.333L58.5 102.333L58 102.333ZM44.5 113L44.5 113.5H44.5V113ZM31 102.333L30.5 102.333V102.333H31ZM37.75 94.2549L38.0161 94.6782L38.25 94.5311V94.2549H37.75ZM37.75 89H38.25V88.5H37.75V89ZM1 89H0.5V89.5H1V89ZM1 52.25V51.75H0.5V52.25H1ZM6.25488 52.25L6.67818 51.9839L6.53114 51.75H6.25488V52.25ZM14.333 59L14.333 59.5H14.333V59ZM25 45.5L25.5 45.5V45.5H25ZM14.333 32L14.333 31.5L14.333 31.5L14.333 32ZM6.25488 38.75V39.25H6.53114L6.67818 39.0161L6.25488 38.75ZM1 38.75H0.5V39.25H1V38.75ZM1 1V0.5H0.5V1H1ZM89 1H89.5V0.5H89V1ZM89 38.75V39.25H89.5V38.75H89ZM83.7451 38.75L83.3218 39.0161L83.4689 39.25H83.7451V38.75ZM75.667 32L75.667 31.5H75.667V32ZM65 45.5L64.5 45.5V45.5H65ZM75.667 59L75.667 59.5L75.667 59.5L75.667 59ZM83.7451 52.25V51.75H83.4689L83.3218 51.9839L83.7451 52.25ZM89 52.25H89.5V51.75H89V52.25ZM89 89V89.5H89.5V89H89ZM51.25 89V88.5H50.75V89H51.25ZM51.25 94.2549L50.9839 94.6782C52.6535 95.7278 54.2998 96.9532 55.5231 98.2782C56.7535 99.611 57.4998 100.983 57.5 102.333L58 102.333L58.5 102.333C58.4998 100.615 57.5585 99.0088 56.2578 97.5999C54.9499 96.1833 53.2213 94.9036 51.5161 93.8316L51.25 94.2549ZM58 102.333H57.5C57.5 108.097 52.4089 112.5 44.5 112.5V113V113.5C52.7454 113.5 58.5 108.842 58.5 102.333H58ZM44.5 113L44.5 112.5C36.5913 112.5 31.5 108.096 31.5 102.333H31H30.5C30.5 108.842 36.2548 113.5 44.5 113.5L44.5 113ZM31 102.333L31.5 102.333C31.5002 100.983 32.2465 99.6111 33.477 98.2783C34.7003 96.9532 36.3466 95.7278 38.0161 94.6782L37.75 94.2549L37.4839 93.8316C35.7787 94.9036 34.0502 96.1833 32.7422 97.5999C31.4415 99.0088 30.5002 100.615 30.5 102.333L31 102.333ZM37.75 94.2549H38.25V89H37.75H37.25V94.2549H37.75ZM37.75 89V88.5H1V89V89.5H37.75V89ZM1 89H1.5V52.25H1H0.5V89H1ZM1 52.25V52.75H6.25488V52.25V51.75H1V52.25ZM6.25488 52.25L5.83159 52.5161C6.90361 54.2213 8.18329 55.9498 9.59992 57.2578C11.0088 58.5585 12.615 59.4998 14.333 59.5L14.333 59L14.3331 58.5C12.9831 58.4998 11.6111 57.7535 10.2783 56.523C8.95325 55.2997 7.72783 53.6534 6.67818 51.9839L6.25488 52.25ZM14.333 59V59.5C20.8423 59.5 25.4999 53.7452 25.5 45.5L25 45.5L24.5 45.5C24.4999 53.4087 20.0964 58.5 14.333 58.5V59ZM25 45.5H25.5C25.5 37.2546 20.8423 31.5 14.333 31.5V32V32.5C20.0965 32.5 24.5 37.5911 24.5 45.5H25ZM14.333 32L14.333 31.5C12.615 31.5002 11.0088 32.4415 9.59989 33.7422C8.18326 35.0501 6.90361 36.7787 5.83159 38.4839L6.25488 38.75L6.67818 39.0161C7.72785 37.3465 8.95323 35.7002 10.2782 34.4769C11.611 33.2465 12.983 32.5002 14.3331 32.5L14.333 32ZM6.25488 38.75V38.25H1V38.75V39.25H6.25488V38.75ZM1 38.75H1.5V1H1H0.5V38.75H1ZM1 1V1.5H89V1V0.5H1V1ZM89 1H88.5V38.75H89H89.5V1H89ZM89 38.75V38.25H83.7451V38.75V39.25H89V38.75ZM83.7451 38.75L84.1684 38.4839C83.0964 36.7787 81.8167 35.0502 80.4001 33.7422C78.9912 32.4415 77.385 31.5002 75.667 31.5L75.667 32L75.6669 32.5C77.0169 32.5002 78.3889 33.2465 79.7217 34.477C81.0468 35.7003 82.2722 37.3466 83.3218 39.0161L83.7451 38.75ZM75.667 32V31.5C69.1577 31.5 64.5001 37.2548 64.5 45.5L65 45.5L65.5 45.5C65.5001 37.5913 69.9036 32.5 75.667 32.5V32ZM65 45.5H64.5C64.5 53.7454 69.1577 59.5 75.667 59.5V59V58.5C69.9035 58.5 65.5 53.4089 65.5 45.5H65ZM75.667 59L75.667 59.5C77.385 59.4998 78.9912 58.5585 80.4001 57.2578C81.8167 55.9499 83.0964 54.2213 84.1684 52.5161L83.7451 52.25L83.3218 51.9839C82.2722 53.6535 81.0468 55.2998 79.7218 56.5231C78.389 57.7535 77.017 58.4998 75.6669 58.5L75.667 59ZM83.7451 52.25V52.75H89V52.25V51.75H83.7451V52.25ZM89 52.25H88.5V89H89H89.5V52.25H89ZM89 89V88.5H51.25V89V89.5H89V89ZM51.25 89H50.75V94.2549H51.25H51.75V89H51.25Z" fill="black"/>
</svg>
