<svg width="114" height="90" viewBox="0 0 114 90" fill="none" xmlns="http://www.w3.org/2000/svg">
<path d="M89 38.75H94.2549C96.3766 35.3752 99.265 32.0003 102.333 32C108.469 32 113 37.4229 113 45.5C113 53.577 108.469 59 102.333 59C99.2651 58.9997 96.3766 55.6247 94.2549 52.25H89V89H51.25V83.7451C54.6247 81.6234 57.9997 78.7349 58 75.667C58 69.5306 52.577 65.0001 44.5 65C36.4229 65 31 69.5306 31 75.667C31.0003 78.735 34.3752 81.6234 37.75 83.7451V89H1V1H89V38.75Z" fill="#FF00D0"/>
<path d="M89 38.75H88.5V39.25H89V38.75ZM94.2549 38.75V39.25H94.5311L94.6782 39.0161L94.2549 38.75ZM102.333 32V31.5H102.333L102.333 32ZM113 45.5L113.5 45.5V45.5H113ZM102.333 59L102.333 59.5H102.333V59ZM94.2549 52.25L94.6782 51.9839L94.5311 51.75H94.2549V52.25ZM89 52.25V51.75H88.5V52.25H89ZM89 89V89.5H89.5V89H89ZM51.25 89H50.75V89.5H51.25V89ZM51.25 83.7451L50.9839 83.3218L50.75 83.4689V83.7451H51.25ZM58 75.667L58.5 75.667V75.667H58ZM44.5 65L44.5 64.5H44.5V65ZM31 75.667H30.5V75.667L31 75.667ZM37.75 83.7451H38.25V83.4689L38.0161 83.3218L37.75 83.7451ZM37.75 89V89.5H38.25V89H37.75ZM1 89H0.5V89.5H1V89ZM1 1V0.5H0.5V1H1ZM89 1H89.5V0.5H89V1ZM89 38.75V39.25H94.2549V38.75V38.25H89V38.75ZM94.2549 38.75L94.6782 39.0161C95.7278 37.3465 96.9532 35.7002 98.2782 34.4769C99.611 33.2465 100.983 32.5002 102.333 32.5L102.333 32L102.333 31.5C100.615 31.5002 99.0088 32.4415 97.5999 33.7422C96.1833 35.0501 94.9036 36.7787 93.8316 38.4839L94.2549 38.75ZM102.333 32V32.5C108.097 32.5 112.5 37.5911 112.5 45.5H113H113.5C113.5 37.2546 108.842 31.5 102.333 31.5V32ZM113 45.5L112.5 45.5C112.5 53.4087 108.096 58.5 102.333 58.5V59V59.5C108.842 59.5 113.5 53.7452 113.5 45.5L113 45.5ZM102.333 59L102.333 58.5C100.983 58.4998 99.6111 57.7535 98.2783 56.523C96.9532 55.2997 95.7278 53.6534 94.6782 51.9839L94.2549 52.25L93.8316 52.5161C94.9036 54.2213 96.1833 55.9498 97.5999 57.2578C99.0088 58.5585 100.615 59.4998 102.333 59.5L102.333 59ZM94.2549 52.25V51.75H89V52.25V52.75H94.2549V52.25ZM89 52.25H88.5V89H89H89.5V52.25H89ZM89 89V88.5H51.25V89V89.5H89V89ZM51.25 89H51.75V83.7451H51.25H50.75V89H51.25ZM51.25 83.7451L51.5161 84.1684C53.2213 83.0964 54.9498 81.8167 56.2578 80.4001C57.5585 78.9912 58.4998 77.385 58.5 75.667L58 75.667L57.5 75.6669C57.4998 77.0169 56.7535 78.3889 55.523 79.7217C54.2997 81.0468 52.6534 82.2722 50.9839 83.3218L51.25 83.7451ZM58 75.667H58.5C58.5 69.1577 52.7452 64.5001 44.5 64.5L44.5 65L44.5 65.5C52.4087 65.5001 57.5 69.9036 57.5 75.667H58ZM44.5 65V64.5C36.2546 64.5 30.5 69.1577 30.5 75.667H31H31.5C31.5 69.9035 36.5911 65.5 44.5 65.5V65ZM31 75.667L30.5 75.667C30.5002 77.385 31.4415 78.9912 32.7422 80.4001C34.0501 81.8167 35.7787 83.0964 37.4839 84.1684L37.75 83.7451L38.0161 83.3218C36.3465 82.2722 34.7002 81.0468 33.4769 79.7218C32.2465 78.389 31.5002 77.017 31.5 75.6669L31 75.667ZM37.75 83.7451H37.25V89H37.75H38.25V83.7451H37.75ZM37.75 89V88.5H1V89V89.5H37.75V89ZM1 89H1.5V1H1H0.5V89H1ZM1 1V1.5H89V1V0.5H1V1ZM89 1H88.5V38.75H89H89.5V1H89Z" fill="black"/>
</svg>
