<svg width="114" height="114" viewBox="0 0 114 114" fill="none" xmlns="http://www.w3.org/2000/svg">
<path d="M75.25 94.2549C78.6248 96.3766 81.9997 99.265 82 102.333C82 108.469 76.5771 113 68.5 113C60.423 113 55 108.469 55 102.333C55.0003 99.2651 58.3753 96.3766 61.75 94.2549V89H25V52.25H19.7451C17.6234 55.6248 14.735 58.9997 11.667 59C5.53058 59 1 53.5771 1 45.5C1.0001 37.423 5.53065 32 11.667 32C14.7349 32.0003 17.6234 35.3753 19.7451 38.75H25V1H113V89H75.25V94.2549Z" fill="#00FF44"/>
<path d="M75.25 94.2549H74.75V94.5311L74.9839 94.6782L75.25 94.2549ZM82 102.333L82.5 102.333L82.5 102.333L82 102.333ZM68.5 113L68.5 113.5H68.5V113ZM55 102.333L54.5 102.333V102.333H55ZM61.75 94.2549L62.0161 94.6782L62.25 94.5311V94.2549H61.75ZM61.75 89H62.25V88.5H61.75V89ZM25 89H24.5V89.5H25V89ZM25 52.25H25.5V51.75H25V52.25ZM19.7451 52.25V51.75H19.4689L19.3218 51.9839L19.7451 52.25ZM11.667 59L11.667 59.5L11.667 59.5L11.667 59ZM1 45.5L0.5 45.5V45.5H1ZM11.667 32L11.667 31.5H11.667V32ZM19.7451 38.75L19.3218 39.0161L19.4689 39.25H19.7451V38.75ZM25 38.75V39.25H25.5V38.75H25ZM25 1V0.5H24.5V1H25ZM113 1H113.5V0.5H113V1ZM113 89V89.5H113.5V89H113ZM75.25 89V88.5H74.75V89H75.25ZM75.25 94.2549L74.9839 94.6782C76.6535 95.7278 78.2998 96.9532 79.5231 98.2782C80.7535 99.611 81.4998 100.983 81.5 102.333L82 102.333L82.5 102.333C82.4998 100.615 81.5585 99.0088 80.2578 97.5999C78.9499 96.1833 77.2213 94.9036 75.5161 93.8316L75.25 94.2549ZM82 102.333H81.5C81.5 108.097 76.4089 112.5 68.5 112.5V113V113.5C76.7454 113.5 82.5 108.842 82.5 102.333H82ZM68.5 113L68.5 112.5C60.5913 112.5 55.5 108.096 55.5 102.333H55H54.5C54.5 108.842 60.2548 113.5 68.5 113.5L68.5 113ZM55 102.333L55.5 102.333C55.5002 100.983 56.2465 99.6111 57.477 98.2783C58.7003 96.9532 60.3466 95.7278 62.0161 94.6782L61.75 94.2549L61.4839 93.8316C59.7787 94.9036 58.0502 96.1833 56.7422 97.5999C55.4415 99.0088 54.5002 100.615 54.5 102.333L55 102.333ZM61.75 94.2549H62.25V89H61.75H61.25V94.2549H61.75ZM61.75 89V88.5H25V89V89.5H61.75V89ZM25 89H25.5V52.25H25H24.5V89H25ZM25 52.25V51.75H19.7451V52.25V52.75H25V52.25ZM19.7451 52.25L19.3218 51.9839C18.2722 53.6535 17.0468 55.2998 15.7218 56.5231C14.389 57.7535 13.017 58.4998 11.6669 58.5L11.667 59L11.667 59.5C13.385 59.4998 14.9912 58.5585 16.4001 57.2578C17.8167 55.9499 19.0964 54.2213 20.1684 52.5161L19.7451 52.25ZM11.667 59V58.5C5.90348 58.5 1.5 53.4089 1.5 45.5H1H0.5C0.5 53.7454 5.15768 59.5 11.667 59.5V59ZM1 45.5L1.5 45.5C1.5001 37.5913 5.90355 32.5 11.667 32.5V32V31.5C5.15774 31.5 0.500104 37.2548 0.5 45.5L1 45.5ZM11.667 32L11.6669 32.5C13.0169 32.5002 14.3889 33.2465 15.7217 34.477C17.0468 35.7003 18.2722 37.3466 19.3218 39.0161L19.7451 38.75L20.1684 38.4839C19.0964 36.7787 17.8167 35.0502 16.4001 33.7422C14.9912 32.4415 13.385 31.5002 11.667 31.5L11.667 32ZM19.7451 38.75V39.25H25V38.75V38.25H19.7451V38.75ZM25 38.75H25.5V1H25H24.5V38.75H25ZM25 1V1.5H113V1V0.5H25V1ZM113 1H112.5V89H113H113.5V1H113ZM113 89V88.5H75.25V89V89.5H113V89ZM75.25 89H74.75V94.2549H75.25H75.75V89H75.25Z" fill="black"/>
</svg>
