<svg width="90" height="90" viewBox="0 0 90 90" fill="none" xmlns="http://www.w3.org/2000/svg">
<path d="M89 89H51.25V83.7451C54.6247 81.6234 57.9997 78.7349 58 75.667C58 69.5306 52.577 65.0001 44.5 65C36.4229 65 31 69.5306 31 75.667C31.0003 78.735 34.3752 81.6234 37.75 83.7451V89H1V52.25H6.25488C8.37655 55.6247 11.2651 58.9997 14.333 59C20.4694 59 24.9999 53.577 25 45.5C25 37.4229 20.4694 32 14.333 32C11.265 32.0003 8.37658 35.3752 6.25488 38.75H1V1H89V89Z" fill="#00FF44"/>
<path d="M89 89V89.5H89.5V89H89ZM51.25 89H50.75V89.5H51.25V89ZM51.25 83.7451L50.9839 83.3218L50.75 83.4689V83.7451H51.25ZM58 75.667L58.5 75.667V75.667H58ZM44.5 65L44.5 64.5H44.5V65ZM31 75.667H30.5V75.667L31 75.667ZM37.75 83.7451H38.25V83.4689L38.0161 83.3218L37.75 83.7451ZM37.75 89V89.5H38.25V89H37.75ZM1 89H0.5V89.5H1V89ZM1 52.25V51.75H0.5V52.25H1ZM6.25488 52.25L6.67818 51.9839L6.53114 51.75H6.25488V52.25ZM14.333 59L14.333 59.5H14.333V59ZM25 45.5L25.5 45.5V45.5H25ZM14.333 32V31.5H14.333L14.333 32ZM6.25488 38.75V39.25H6.53114L6.67818 39.0161L6.25488 38.75ZM1 38.75H0.5V39.25H1V38.75ZM1 1V0.5H0.5V1H1ZM89 1H89.5V0.5H89V1ZM89 89V88.5H51.25V89V89.5H89V89ZM51.25 89H51.75V83.7451H51.25H50.75V89H51.25ZM51.25 83.7451L51.5161 84.1684C53.2213 83.0964 54.9498 81.8167 56.2578 80.4001C57.5585 78.9912 58.4998 77.385 58.5 75.667L58 75.667L57.5 75.6669C57.4998 77.0169 56.7535 78.3889 55.523 79.7217C54.2997 81.0468 52.6534 82.2722 50.9839 83.3218L51.25 83.7451ZM58 75.667H58.5C58.5 69.1577 52.7452 64.5001 44.5 64.5L44.5 65L44.5 65.5C52.4087 65.5001 57.5 69.9036 57.5 75.667H58ZM44.5 65V64.5C36.2546 64.5 30.5 69.1577 30.5 75.667H31H31.5C31.5 69.9035 36.5911 65.5 44.5 65.5V65ZM31 75.667L30.5 75.667C30.5002 77.385 31.4415 78.9912 32.7422 80.4001C34.0501 81.8167 35.7787 83.0964 37.4839 84.1684L37.75 83.7451L38.0161 83.3218C36.3465 82.2722 34.7002 81.0468 33.4769 79.7218C32.2465 78.389 31.5002 77.017 31.5 75.6669L31 75.667ZM37.75 83.7451H37.25V89H37.75H38.25V83.7451H37.75ZM37.75 89V88.5H1V89V89.5H37.75V89ZM1 89H1.5V52.25H1H0.5V89H1ZM1 52.25V52.75H6.25488V52.25V51.75H1V52.25ZM6.25488 52.25L5.83159 52.5161C6.90361 54.2213 8.18329 55.9498 9.59992 57.2578C11.0088 58.5585 12.615 59.4998 14.333 59.5L14.333 59L14.3331 58.5C12.9831 58.4998 11.6111 57.7535 10.2783 56.523C8.95325 55.2997 7.72783 53.6534 6.67818 51.9839L6.25488 52.25ZM14.333 59V59.5C20.8423 59.5 25.4999 53.7452 25.5 45.5L25 45.5L24.5 45.5C24.4999 53.4087 20.0964 58.5 14.333 58.5V59ZM25 45.5H25.5C25.5 37.2546 20.8423 31.5 14.333 31.5V32V32.5C20.0965 32.5 24.5 37.5911 24.5 45.5H25ZM14.333 32L14.333 31.5C12.615 31.5002 11.0088 32.4415 9.59989 33.7422C8.18326 35.0501 6.90361 36.7787 5.83159 38.4839L6.25488 38.75L6.67818 39.0161C7.72785 37.3465 8.95323 35.7002 10.2782 34.4769C11.611 33.2465 12.983 32.5002 14.3331 32.5L14.333 32ZM6.25488 38.75V38.25H1V38.75V39.25H6.25488V38.75ZM1 38.75H1.5V1H1H0.5V38.75H1ZM1 1V1.5H89V1V0.5H1V1ZM89 1H88.5V89H89H89.5V1H89Z" fill="black"/>
</svg>
